<?xml version="1.0" encoding="UTF-8"?>
<!DOCTYPE svg PUBLIC "-//W3C//DTD SVG 1.1//EN" "http://www.w3.org/Graphics/SVG/1.1/DTD/svg11.dtd">
<svg xmlns="http://www.w3.org/2000/svg" version="1.1" width="12px" height="11px" style="shape-rendering:geometricPrecision; text-rendering:geometricPrecision; image-rendering:optimizeQuality; fill-rule:evenodd; clip-rule:evenodd" xmlns:xlink="http://www.w3.org/1999/xlink">
<g><path style="opacity:0.921" fill="#fefefe" d="M 0.5,-0.5 C 3.83333,-0.5 7.16667,-0.5 10.5,-0.5C 10.5,0.166667 10.8333,0.5 11.5,0.5C 11.5,3.5 11.5,6.5 11.5,9.5C 10.8333,9.5 10.5,9.83333 10.5,10.5C 7.16667,10.5 3.83333,10.5 0.5,10.5C 0.5,9.83333 0.166667,9.5 -0.5,9.5C -0.5,6.5 -0.5,3.5 -0.5,0.5C 0.166667,0.5 0.5,0.166667 0.5,-0.5 Z"/></g>
<g><path style="opacity:1" fill="#d7d7d7" d="M 8.5,2.5 C 9.37644,2.36912 10.0431,2.70245 10.5,3.5C 8.68415,4.81489 7.01748,6.31489 5.5,8C 2.8659,8.92481 1.69923,8.09148 2,5.5C 2.66667,6.16667 3.33333,6.83333 4,7.5C 5.70733,5.96252 7.20733,4.29585 8.5,2.5 Z"/></g>
</svg>
