<?xml version="1.0" encoding="UTF-8"?>
<!DOCTYPE svg PUBLIC "-//W3C//DTD SVG 1.1//EN" "http://www.w3.org/Graphics/SVG/1.1/DTD/svg11.dtd">
<svg xmlns="http://www.w3.org/2000/svg" version="1.1" width="8px" height="8px" style="shape-rendering:geometricPrecision; text-rendering:geometricPrecision; image-rendering:optimizeQuality; fill-rule:evenodd; clip-rule:evenodd" xmlns:xlink="http://www.w3.org/1999/xlink">
<g><path style="opacity:0.882" fill="#f6f6f6" d="M 0.5,0.5 C 0.5,0.166667 0.5,-0.166667 0.5,-0.5C 2.5,-0.5 4.5,-0.5 6.5,-0.5C 6.5,-0.166667 6.5,0.166667 6.5,0.5C 5.29208,1.23411 3.95875,1.56745 2.5,1.5C 2.15829,0.661754 1.49162,0.32842 0.5,0.5 Z"/></g>
<g><path style="opacity:1" fill="#d8d8d8" d="M -0.5,1.5 C -0.5,1.16667 -0.5,0.833333 -0.5,0.5C -0.166667,0.5 0.166667,0.5 0.5,0.5C 1.49162,0.32842 2.15829,0.661754 2.5,1.5C 2.5,1.83333 2.5,2.16667 2.5,2.5C 2.5,3.16667 2.5,3.83333 2.5,4.5C 2.16667,4.5 1.83333,4.5 1.5,4.5C 1.57298,2.97306 0.906316,1.97306 -0.5,1.5 Z"/></g>
<g><path style="opacity:0.889" fill="#f8f8f8" d="M -0.5,1.5 C 0.906316,1.97306 1.57298,2.97306 1.5,4.5C 1.16667,5.16667 0.833333,5.83333 0.5,6.5C 0.166667,6.5 -0.166667,6.5 -0.5,6.5C -0.5,4.83333 -0.5,3.16667 -0.5,1.5 Z"/></g>
<g><path style="opacity:1" fill="#c5c5c5" d="M 2.5,2.5 C 3.83333,2.5 4.5,3.16667 4.5,4.5C 3.83333,4.5 3.16667,4.5 2.5,4.5C 2.5,3.83333 2.5,3.16667 2.5,2.5 Z"/></g>
<g><path style="opacity:1" fill="#d9d9d9" d="M 6.5,0.5 C 6.83333,0.5 7.16667,0.5 7.5,0.5C 7.5,0.833333 7.5,1.16667 7.5,1.5C 4.83333,2.83333 4.83333,4.16667 7.5,5.5C 7.5,5.83333 7.5,6.16667 7.5,6.5C 6.83333,6.5 6.5,6.83333 6.5,7.5C 6.16667,7.5 5.83333,7.5 5.5,7.5C 5.16667,6.83333 4.83333,6.16667 4.5,5.5C 4.5,5.16667 4.5,4.83333 4.5,4.5C 4.5,3.16667 3.83333,2.5 2.5,2.5C 2.5,2.16667 2.5,1.83333 2.5,1.5C 3.95875,1.56745 5.29208,1.23411 6.5,0.5 Z"/></g>
<g><path style="opacity:0.916" fill="#fafafa" d="M 7.5,1.5 C 7.5,2.83333 7.5,4.16667 7.5,5.5C 4.83333,4.16667 4.83333,2.83333 7.5,1.5 Z"/></g>
<g><path style="opacity:1" fill="#d7d7d7" d="M 1.5,4.5 C 1.83333,4.5 2.16667,4.5 2.5,4.5C 3.16667,4.5 3.83333,4.5 4.5,4.5C 4.5,4.83333 4.5,5.16667 4.5,5.5C 2.97306,5.42702 1.97306,6.09368 1.5,7.5C 1.16667,7.5 0.833333,7.5 0.5,7.5C 0.5,7.16667 0.5,6.83333 0.5,6.5C 0.833333,5.83333 1.16667,5.16667 1.5,4.5 Z"/></g>
<g><path style="opacity:0.911" fill="#fafafa" d="M 4.5,5.5 C 4.83333,6.16667 5.16667,6.83333 5.5,7.5C 4.16667,7.5 2.83333,7.5 1.5,7.5C 1.97306,6.09368 2.97306,5.42702 4.5,5.5 Z"/></g>
</svg>
