<?xml version="1.0" encoding="UTF-8"?>
<!DOCTYPE svg PUBLIC "-//W3C//DTD SVG 1.1//EN" "http://www.w3.org/Graphics/SVG/1.1/DTD/svg11.dtd">
<svg xmlns="http://www.w3.org/2000/svg" version="1.1" width="12px" height="12px" style="shape-rendering:geometricPrecision; text-rendering:geometricPrecision; image-rendering:optimizeQuality; fill-rule:evenodd; clip-rule:evenodd" xmlns:xlink="http://www.w3.org/1999/xlink">
<g><path style="opacity:0.849" fill="#f7f8f9" d="M 0.5,-0.5 C 3.83333,-0.5 7.16667,-0.5 10.5,-0.5C 10.5,0.166667 10.8333,0.5 11.5,0.5C 11.5,3.83333 11.5,7.16667 11.5,10.5C 10.8333,10.5 10.5,10.8333 10.5,11.5C 7.16667,11.5 3.83333,11.5 0.5,11.5C 0.5,10.8333 0.166667,10.5 -0.5,10.5C -0.5,7.16667 -0.5,3.83333 -0.5,0.5C 0.166667,0.5 0.5,0.166667 0.5,-0.5 Z"/></g>
<g><path style="opacity:1" fill="#abb3be" d="M 3.5,1.5 C 8.4943,1.32904 10.3276,3.66238 9,8.5C 6.89382,10.291 4.39382,10.9577 1.5,10.5C 1.28951,7.24805 1.95617,4.24805 3.5,1.5 Z"/></g>
<g><path style="opacity:1" fill="#edeff1" d="M 4.5,2.5 C 5.46739,3.80624 6.80072,4.47291 8.5,4.5C 8.5,5.5 8.5,6.5 8.5,7.5C 7.16667,7.5 5.83333,7.5 4.5,7.5C 4.5,5.83333 4.5,4.16667 4.5,2.5 Z"/></g>
</svg>
