<?xml version="1.0" encoding="UTF-8"?>
<!DOCTYPE svg PUBLIC "-//W3C//DTD SVG 1.1//EN" "http://www.w3.org/Graphics/SVG/1.1/DTD/svg11.dtd">
<svg xmlns="http://www.w3.org/2000/svg" version="1.1" width="12px" height="13px" style="shape-rendering:geometricPrecision; text-rendering:geometricPrecision; image-rendering:optimizeQuality; fill-rule:evenodd; clip-rule:evenodd" xmlns:xlink="http://www.w3.org/1999/xlink">
<g><path style="opacity:0.933" fill="#e8edf3" d="M 0.5,-0.5 C 3.83333,-0.5 7.16667,-0.5 10.5,-0.5C 10.5,0.166667 10.8333,0.5 11.5,0.5C 11.5,4.16667 11.5,7.83333 11.5,11.5C 10.8333,11.5 10.5,11.8333 10.5,12.5C 7.16667,12.5 3.83333,12.5 0.5,12.5C 0.5,11.8333 0.166667,11.5 -0.5,11.5C -0.5,7.83333 -0.5,4.16667 -0.5,0.5C 0.166667,0.5 0.5,0.166667 0.5,-0.5 Z"/></g>
<g><path style="opacity:1" fill="#7b879a" d="M 5.5,1.5 C 6.37644,1.36912 7.04311,1.70245 7.5,2.5C 6.65339,5.55392 5.65339,8.55392 4.5,11.5C 4.16667,11.3333 3.83333,11.1667 3.5,11C 4.61007,7.95087 5.27674,4.7842 5.5,1.5 Z"/></g>
</svg>
