<?xml version="1.0" encoding="UTF-8"?>
<!DOCTYPE svg PUBLIC "-//W3C//DTD SVG 1.1//EN" "http://www.w3.org/Graphics/SVG/1.1/DTD/svg11.dtd">
<svg xmlns="http://www.w3.org/2000/svg" version="1.1" width="11px" height="11px" style="shape-rendering:geometricPrecision; text-rendering:geometricPrecision; image-rendering:optimizeQuality; fill-rule:evenodd; clip-rule:evenodd" xmlns:xlink="http://www.w3.org/1999/xlink">
<g><path style="opacity:0.9" fill="#fefefe" d="M 0.5,-0.5 C 3.5,-0.5 6.5,-0.5 9.5,-0.5C 9.5,0.166667 9.83333,0.5 10.5,0.5C 10.5,3.5 10.5,6.5 10.5,9.5C 9.83333,9.5 9.5,9.83333 9.5,10.5C 6.5,10.5 3.5,10.5 0.5,10.5C 0.5,9.83333 0.166667,9.5 -0.5,9.5C -0.5,6.5 -0.5,3.5 -0.5,0.5C 0.166667,0.5 0.5,0.166667 0.5,-0.5 Z"/></g>
<g><path style="opacity:1" fill="#bbc1ca" d="M 6.5,1.5 C 8.68588,1.51064 9.51922,2.51064 9,4.5C 7.1136,7.24201 4.6136,8.90868 1.5,9.5C 1.35055,8.44802 1.51722,7.44802 2,6.5C 3.70733,4.96252 5.20733,3.29585 6.5,1.5 Z"/></g>
</svg>
