<?xml version="1.0" standalone="no"?>
<!DOCTYPE svg PUBLIC "-//W3C//DTD SVG 20010904//EN"
 "http://www.w3.org/TR/2001/REC-SVG-20010904/DTD/svg10.dtd">
<svg version="1.0" xmlns="http://www.w3.org/2000/svg"
 width="640.000000pt" height="640.000000pt" viewBox="0 0 640.000000 640.000000"
 preserveAspectRatio="xMidYMid meet">
<metadata>
Created by potrace 1.16, written by Peter Selinger 2001-2019
</metadata>
<g transform="translate(0.000000,640.000000) scale(0.100000,-0.100000)"
fill="#000000" stroke="none">
<path d="M2661 5475 c-155 -44 -316 -204 -346 -342 l-7 -33 -82 0 c-103 0
-177 -19 -280 -73 -200 -104 -320 -307 -302 -513 l7 -72 -66 -51 c-79 -62
-143 -142 -190 -236 -55 -111 -70 -183 -69 -320 1 -141 26 -235 93 -346 l40
-66 -92 -94 c-138 -141 -204 -277 -229 -472 -21 -166 19 -352 107 -496 50 -83
161 -199 243 -254 l70 -47 1 -78 c4 -270 200 -538 459 -628 52 -18 54 -21 93
-99 71 -146 208 -268 362 -323 63 -23 89 -26 197 -27 106 0 136 4 200 25 95
31 209 108 274 185 l51 60 85 -86 c96 -97 165 -138 288 -170 145 -37 313 -17
445 53 114 61 233 191 284 312 19 46 25 51 79 70 137 50 259 146 343 271 75
113 121 259 121 388 l0 52 62 40 c70 45 173 144 219 211 17 25 48 82 69 127
134 290 73 647 -151 878 -30 30 -67 65 -82 76 l-28 21 39 61 c22 33 52 100 68
148 26 80 29 101 29 223 -1 120 -3 143 -27 211 -48 138 -127 249 -237 335
l-54 42 2 84 c4 168 -47 297 -163 412 -120 120 -248 170 -413 164 l-84 -3 -10
40 c-33 123 -137 243 -265 307 -79 39 -91 42 -188 46 -86 4 -116 1 -173 -16
-77 -24 -170 -81 -222 -136 l-35 -36 -57 55 c-36 35 -87 69 -135 92 -71 34
-85 37 -183 40 -73 2 -123 -2 -160 -12z m262 -216 c54 -27 113 -83 140 -134
19 -36 22 -61 27 -231 5 -196 7 -207 50 -241 36 -29 127 -7 146 35 4 9 10 100
14 202 5 165 8 189 28 227 35 66 78 110 140 140 47 23 70 28 132 27 89 0 155
-29 213 -93 54 -60 70 -98 75 -181 6 -91 22 -127 69 -146 32 -14 40 -13 101 7
75 25 171 29 239 10 93 -26 197 -127 229 -224 23 -70 20 -176 -6 -248 -23 -61
-78 -126 -152 -182 -42 -31 -53 -60 -44 -113 8 -39 53 -74 97 -74 50 0 172 94
232 180 l17 24 46 -44 c150 -147 192 -377 104 -567 -16 -34 -55 -90 -88 -126
-69 -74 -78 -94 -62 -142 9 -28 26 -43 83 -78 139 -82 243 -215 282 -363 26
-97 22 -234 -9 -328 -60 -179 -162 -294 -321 -366 -114 -51 -223 -60 -411 -34
-34 5 -45 1 -71 -20 -63 -53 -48 -140 29 -170 62 -25 235 -40 309 -27 35 6 65
8 68 6 10 -11 -22 -132 -51 -193 -39 -83 -133 -179 -216 -220 -89 -44 -158
-56 -272 -47 -144 11 -152 10 -182 -25 -72 -79 4 -180 136 -180 42 0 38 -16
-20 -79 -191 -207 -526 -169 -669 75 -30 51 -55 143 -55 202 0 37 -6 50 -34
78 -38 38 -70 43 -116 19 -40 -21 -51 -45 -61 -133 -15 -133 -86 -246 -200
-317 -111 -71 -274 -78 -399 -18 -59 29 -174 135 -168 155 3 7 31 17 64 23 32
6 69 17 82 24 33 18 51 65 41 109 -13 60 -67 87 -137 71 -96 -22 -232 -6 -336
39 -70 32 -188 153 -226 233 -24 52 -55 177 -46 186 2 2 29 -2 62 -8 100 -19
308 8 351 45 28 24 39 79 24 118 -5 15 -25 35 -43 44 -29 15 -41 15 -114 4
-161 -25 -315 4 -436 81 -27 17 -76 62 -111 99 -105 114 -157 247 -157 401 1
108 12 155 61 257 70 146 187 247 362 312 88 33 115 113 58 171 -33 32 -81 38
-141 18 -30 -11 -35 -10 -52 12 -11 13 -36 57 -55 98 -33 66 -37 83 -41 176
-4 85 -1 115 17 173 23 78 83 174 138 222 l36 32 25 -34 c68 -89 175 -168 227
-168 59 0 106 58 97 121 -3 21 -19 41 -50 67 -121 97 -161 165 -169 291 -4 58
-1 91 11 127 48 143 195 246 352 247 90 0 183 -40 241 -104 103 -113 110 -119
145 -119 18 0 44 7 57 16 30 21 52 74 44 105 -10 40 -59 103 -132 171 l-71 65
15 50 c51 170 252 260 408 182z"/>
</g>
</svg>
