<?xml version="1.0" encoding="UTF-8"?>
<!DOCTYPE svg PUBLIC "-//W3C//DTD SVG 1.1//EN" "http://www.w3.org/Graphics/SVG/1.1/DTD/svg11.dtd">
<svg xmlns="http://www.w3.org/2000/svg" version="1.1" width="19px" height="18px" style="shape-rendering:geometricPrecision; text-rendering:geometricPrecision; image-rendering:optimizeQuality; fill-rule:evenodd; clip-rule:evenodd" xmlns:xlink="http://www.w3.org/1999/xlink">
<g><path style="opacity:0.968" fill="#efede9" d="M 0.5,-0.5 C 6.16667,-0.5 11.8333,-0.5 17.5,-0.5C 17.5,0.166667 17.8333,0.5 18.5,0.5C 18.5,5.83333 18.5,11.1667 18.5,16.5C 17.8333,16.5 17.5,16.8333 17.5,17.5C 17.1667,17.5 16.8333,17.5 16.5,17.5C 14.832,15.66 13.332,13.66 12,11.5C 9.66667,14.1667 7.33333,14.1667 5,11.5C 4.66102,7.51263 6.49435,6.01263 10.5,7C 12.4291,8.82816 12.7624,8.49483 11.5,6C 4.00547,4.81271 2.00547,7.47937 5.5,14C 7.83333,14.3333 10.1667,14.6667 12.5,15C 13.3805,15.7083 14.0472,16.5416 14.5,17.5C 9.83333,17.5 5.16667,17.5 0.5,17.5C 0.5,16.8333 0.166667,16.5 -0.5,16.5C -0.5,11.1667 -0.5,5.83333 -0.5,0.5C 0.166667,0.5 0.5,0.166667 0.5,-0.5 Z"/></g>
<g><path style="opacity:1" fill="#5d5c5b" d="M 16.5,17.5 C 15.8333,17.5 15.1667,17.5 14.5,17.5C 14.0472,16.5416 13.3805,15.7083 12.5,15C 10.1667,14.6667 7.83333,14.3333 5.5,14C 2.00547,7.47937 4.00547,4.81271 11.5,6C 12.7624,8.49483 12.4291,8.82816 10.5,7C 6.49435,6.01263 4.66102,7.51263 5,11.5C 7.33333,14.1667 9.66667,14.1667 12,11.5C 13.332,13.66 14.832,15.66 16.5,17.5 Z"/></g>
</svg>
